# xmcd CD database file
#
# Track frame offsets:
#	150
#	22218
#	44253
#	67679
#	84869
#	102949
#	121156
#	138649
#	160647
#	186446
#	209032
#	231518
#	256939
#	283590
#	299056
#	312722
#	326555
#
# Disc length: 4535 seconds
#
# Revision: 0
# Processed by: cddbd v1.5.2PL0 Copyright (c) Steve Scherf et al.
# Submitted via: CDex 1.51
#
DISCID=0611b511
DTITLE=Bengt Hallberg featuring Lars Gullin - All star sessions 1953/54
DYEAR=2007
DGENRE=Jazz
TTITLE0=Whiskey sour
TTITLE1=Side car - take 2
TTITLE2=Limehouse blues
TTITLE3=Pink lady - take 3
TTITLE4=Pink lady - take 1
TTITLE5=Side car - take 1
TTITLE6=Pink lady - take 2
TTITLE7=Red wails in the sunset - take 1
TTITLE8=Red wails in the sunset - take 2
TTITLE9=Doe eyes - take 1
TTITLE10=Doe eyes - take 2
TTITLE11=Red head
TTITLE12=Depressionism
TTITLE13=Meatballs
TTITLE14=Blues in fourths - take 3
TTITLE15=Blues in fourths - take 1
TTITLE16=Blues in fourths - take 2
EXTD=YEAR: 2007
EXTT0=
EXTT1=
EXTT2=
EXTT3=
EXTT4=
EXTT5=
EXTT6=
EXTT7=
EXTT8=
EXTT9=
EXTT10=
EXTT11=
EXTT12=
EXTT13=
EXTT14=
EXTT15=
EXTT16=
PLAYORDER=
